<svg data-v-423bf9ae="" xmlns="http://www.w3.org/2000/svg" viewBox="0 0 432 90" class="iconLeft"><!----><!----><!----><g data-v-423bf9ae="" id="27fad79b-10e5-458c-96f5-e1da26f3cd2b" fill="white" transform="matrix(5.410279456668789,0,0,5.410279456668789,97.30793851241694,0.4463474751451244)"><path d="M5.33 4.83L5.33 13.64L3.62 13.64L3.62 4.83L0.38 4.83L0.60 3.63L8.67 3.63L8.45 4.83L5.33 4.83ZM12.84 12.58L12.84 12.58L12.84 12.58Q12.67 12.73 12.42 12.94L12.42 12.94L12.42 12.94Q12.17 13.15 11.86 13.33L11.86 13.33L11.86 13.33Q11.56 13.52 11.20 13.65L11.20 13.65L11.20 13.65Q10.84 13.78 10.45 13.78L10.45 13.78L10.45 13.78Q10.04 13.78 9.70 13.63L9.70 13.63L9.70 13.63Q9.35 13.49 9.10 13.22L9.10 13.22L9.10 13.22Q8.84 12.96 8.69 12.60L8.69 12.60L8.69 12.60Q8.54 12.23 8.54 11.79L8.54 11.79L8.54 11.79Q8.54 11.32 8.73 10.88L8.73 10.88L8.73 10.88Q8.92 10.43 9.36 10.08L9.36 10.08L9.36 10.08Q9.80 9.73 10.53 9.52L10.53 9.52L10.53 9.52Q11.25 9.30 12.32 9.30L12.32 9.30L12.82 9.30L12.82 8.74L12.82 8.74Q12.82 8.44 12.71 8.20L12.71 8.20L12.71 8.20Q12.61 7.96 12.43 7.79L12.43 7.79L12.43 7.79Q12.24 7.62 11.99 7.53L11.99 7.53L11.99 7.53Q11.73 7.44 11.42 7.44L11.42 7.44L11.42 7.44Q11.17 7.44 10.89 7.50L10.89 7.50L10.89 7.50Q10.61 7.56 10.34 7.66L10.34 7.66L10.34 7.66Q10.06 7.77 9.80 7.91L9.80 7.91L9.80 7.91Q9.54 8.05 9.34 8.21L9.34 8.21L9.21 8.14L8.90 6.99L8.90 6.99Q9.73 6.56 10.44 6.41L10.44 6.41L10.44 6.41Q11.15 6.26 11.77 6.26L11.77 6.26L11.77 6.26Q12.41 6.26 12.92 6.39L12.92 6.39L12.92 6.39Q13.42 6.52 13.77 6.79L13.77 6.79L13.77 6.79Q14.12 7.06 14.30 7.48L14.30 7.48L14.30 7.48Q14.48 7.89 14.48 8.46L14.48 8.46L14.48 11.81L14.48 11.81Q14.48 11.91 14.50 12.03L14.50 12.03L14.50 12.03Q14.51 12.15 14.56 12.26L14.56 12.26L14.56 12.26Q14.62 12.37 14.71 12.45L14.71 12.45L14.71 12.45Q14.81 12.52 14.98 12.52L14.98 12.52L14.98 12.52Q15.07 12.52 15.21 12.50L15.21 12.50L15.21 12.50Q15.35 12.47 15.48 12.41L15.48 12.41L15.48 13.23L15.48 13.23Q15.11 13.48 14.75 13.63L14.75 13.63L14.75 13.63Q14.38 13.78 14.03 13.78L14.03 13.78L14.03 13.78Q13.76 13.78 13.56 13.68L13.56 13.68L13.56 13.68Q13.36 13.58 13.23 13.41L13.23 13.41L13.23 13.41Q13.09 13.24 13.00 13.03L13.00 13.03L13.00 13.03Q12.91 12.81 12.84 12.58ZM12.82 11.70L12.82 10.11L12.39 10.11L12.39 10.11Q11.68 10.11 11.24 10.21L11.24 10.21L11.24 10.21Q10.81 10.31 10.57 10.48L10.57 10.48L10.57 10.48Q10.33 10.66 10.25 10.89L10.25 10.89L10.25 10.89Q10.17 11.12 10.17 11.38L10.17 11.38L10.17 11.38Q10.17 11.66 10.25 11.87L10.25 11.87L10.25 11.87Q10.34 12.09 10.48 12.23L10.48 12.23L10.48 12.23Q10.62 12.37 10.81 12.45L10.81 12.45L10.81 12.45Q11.00 12.52 11.22 12.52L11.22 12.52L11.22 12.52Q11.38 12.52 11.56 12.49L11.56 12.49L11.56 12.49Q11.74 12.45 11.93 12.35L11.93 12.35L11.93 12.35Q12.13 12.26 12.35 12.10L12.35 12.10L12.35 12.10Q12.56 11.94 12.82 11.70L12.82 11.70ZM16.57 13.30L16.86 12.06L16.99 11.98L16.99 11.98Q17.25 12.13 17.54 12.24L17.54 12.24L17.54 12.24Q17.83 12.36 18.12 12.44L18.12 12.44L18.12 12.44Q18.41 12.52 18.68 12.56L18.68 12.56L18.68 12.56Q18.96 12.60 19.20 12.60L19.20 12.60L19.20 12.60Q19.82 12.60 20.17 12.34L20.17 12.34L20.17 12.34Q20.52 12.08 20.52 11.68L20.52 11.68L20.52 11.68Q20.52 11.40 20.36 11.22L20.36 11.22L20.36 11.22Q20.20 11.05 19.94 10.92L19.94 10.92L19.94 10.92Q19.67 10.79 19.34 10.70L19.34 10.70L19.34 10.70Q19.00 10.60 18.65 10.50L18.65 10.50L18.65 10.50Q18.30 10.39 17.96 10.25L17.96 10.25L17.96 10.25Q17.63 10.12 17.37 9.91L17.37 9.91L17.37 9.91Q17.10 9.69 16.94 9.39L16.94 9.39L16.94 9.39Q16.78 9.08 16.78 8.64L16.78 8.64L16.78 8.64Q16.78 8.14 17.00 7.70L17.00 7.70L17.00 7.70Q17.21 7.27 17.61 6.95L17.61 6.95L17.61 6.95Q18.01 6.63 18.58 6.45L18.58 6.45L18.58 6.45Q19.15 6.26 19.87 6.26L19.87 6.26L19.87 6.26Q20.04 6.26 20.28 6.28L20.28 6.28L20.28 6.28Q20.51 6.29 20.77 6.32L20.77 6.32L20.77 6.32Q21.03 6.35 21.29 6.40L21.29 6.40L21.29 6.40Q21.55 6.45 21.77 6.52L21.77 6.52L21.47 7.75L21.32 7.83L21.32 7.83Q21.12 7.73 20.88 7.66L20.88 7.66L20.88 7.66Q20.64 7.58 20.41 7.54L20.41 7.54L20.41 7.54Q20.17 7.49 19.95 7.47L19.95 7.47L19.95 7.47Q19.73 7.44 19.56 7.44L19.56 7.44L19.56 7.44Q18.96 7.44 18.62 7.68L18.62 7.68L18.62 7.68Q18.28 7.92 18.28 8.33L18.28 8.33L18.28 8.33Q18.28 8.61 18.44 8.79L18.44 8.79L18.44 8.79Q18.61 8.97 18.87 9.10L18.87 9.10L18.87 9.10Q19.13 9.22 19.48 9.31L19.48 9.31L19.48 9.31Q19.82 9.41 20.17 9.51L20.17 9.51L20.17 9.51Q20.52 9.62 20.86 9.75L20.86 9.75L20.86 9.75Q21.21 9.89 21.47 10.10L21.47 10.10L21.47 10.10Q21.73 10.32 21.90 10.62L21.90 10.62L21.90 10.62Q22.06 10.93 22.06 11.38L22.06 11.38L22.06 11.38Q22.06 11.89 21.84 12.33L21.84 12.33L21.84 12.33Q21.62 12.77 21.22 13.09L21.22 13.09L21.22 13.09Q20.82 13.41 20.25 13.60L20.25 13.60L20.25 13.60Q19.68 13.78 18.99 13.78L18.99 13.78L18.99 13.78Q18.42 13.78 17.79 13.66L17.79 13.66L17.79 13.66Q17.15 13.54 16.57 13.30L16.57 13.30ZM23.88 13.64L23.88 2.69L25.54 2.69L25.54 13.64L23.88 13.64ZM30.65 13.64L28.64 13.64L25.94 9.82L28.76 6.42L30.43 6.42L27.59 9.62L30.65 13.64ZM38.34 13.64L32.38 13.64L32.38 3.63L38.47 3.63L38.25 4.83L34.08 4.83L34.08 7.85L37.77 7.85L37.55 9.02L34.08 9.02L34.08 12.44L38.57 12.44L38.34 13.64ZM44.50 12.58L44.50 12.58L44.50 12.58Q44.32 12.73 44.07 12.94L44.07 12.94L44.07 12.94Q43.82 13.15 43.51 13.33L43.51 13.33L43.51 13.33Q43.21 13.52 42.85 13.65L42.85 13.65L42.85 13.65Q42.49 13.78 42.10 13.78L42.10 13.78L42.10 13.78Q41.69 13.78 41.35 13.63L41.35 13.63L41.35 13.63Q41.00 13.49 40.75 13.22L40.75 13.22L40.75 13.22Q40.49 12.96 40.34 12.60L40.34 12.60L40.34 12.60Q40.20 12.23 40.20 11.79L40.20 11.79L40.20 11.79Q40.20 11.32 40.38 10.88L40.38 10.88L40.38 10.88Q40.57 10.43 41.01 10.08L41.01 10.08L41.01 10.08Q41.45 9.73 42.18 9.52L42.18 9.52L42.18 9.52Q42.90 9.30 43.97 9.30L43.97 9.30L44.47 9.30L44.47 8.74L44.47 8.74Q44.47 8.44 44.37 8.20L44.37 8.20L44.37 8.20Q44.26 7.96 44.08 7.79L44.08 7.79L44.08 7.79Q43.89 7.62 43.64 7.53L43.64 7.53L43.64 7.53Q43.38 7.44 43.07 7.44L43.07 7.44L43.07 7.44Q42.82 7.44 42.54 7.50L42.54 7.50L42.54 7.50Q42.26 7.56 41.99 7.66L41.99 7.66L41.99 7.66Q41.71 7.77 41.45 7.91L41.45 7.91L41.45 7.91Q41.19 8.05 40.99 8.21L40.99 8.21L40.87 8.14L40.55 6.99L40.55 6.99Q41.38 6.56 42.09 6.41L42.09 6.41L42.09 6.41Q42.80 6.26 43.42 6.26L43.42 6.26L43.42 6.26Q44.06 6.26 44.57 6.39L44.57 6.39L44.57 6.39Q45.07 6.52 45.42 6.79L45.42 6.79L45.42 6.79Q45.77 7.06 45.95 7.48L45.95 7.48L45.95 7.48Q46.13 7.89 46.13 8.46L46.13 8.46L46.13 11.81L46.13 11.81Q46.13 11.91 46.15 12.03L46.15 12.03L46.15 12.03Q46.16 12.15 46.21 12.26L46.21 12.26L46.21 12.26Q46.27 12.37 46.36 12.45L46.36 12.45L46.36 12.45Q46.46 12.52 46.63 12.52L46.63 12.52L46.63 12.52Q46.72 12.52 46.86 12.50L46.86 12.50L46.86 12.50Q47.00 12.47 47.13 12.41L47.13 12.41L47.13 13.23L47.13 13.23Q46.76 13.48 46.40 13.63L46.40 13.63L46.40 13.63Q46.03 13.78 45.68 13.78L45.68 13.78L45.68 13.78Q45.41 13.78 45.21 13.68L45.21 13.68L45.21 13.68Q45.01 13.58 44.88 13.41L44.88 13.41L44.88 13.41Q44.74 13.24 44.65 13.03L44.65 13.03L44.65 13.03Q44.56 12.81 44.50 12.58ZM44.47 11.70L44.47 10.11L44.04 10.11L44.04 10.11Q43.33 10.11 42.89 10.21L42.89 10.21L42.89 10.21Q42.46 10.31 42.22 10.48L42.22 10.48L42.22 10.48Q41.98 10.66 41.90 10.89L41.90 10.89L41.90 10.89Q41.82 11.12 41.82 11.38L41.82 11.38L41.82 11.38Q41.82 11.66 41.90 11.87L41.90 11.87L41.90 11.87Q41.99 12.09 42.13 12.23L42.13 12.23L42.13 12.23Q42.27 12.37 42.46 12.45L42.46 12.45L42.46 12.45Q42.65 12.52 42.87 12.52L42.87 12.52L42.87 12.52Q43.03 12.52 43.21 12.49L43.21 12.49L43.21 12.49Q43.39 12.45 43.58 12.35L43.58 12.35L43.58 12.35Q43.78 12.26 44.00 12.10L44.00 12.10L44.00 12.10Q44.21 11.94 44.47 11.70L44.47 11.70ZM48.22 13.30L48.51 12.06L48.64 11.98L48.64 11.98Q48.90 12.13 49.19 12.24L49.19 12.24L49.19 12.24Q49.49 12.36 49.77 12.44L49.77 12.44L49.77 12.44Q50.06 12.52 50.33 12.56L50.33 12.56L50.33 12.56Q50.61 12.60 50.85 12.60L50.85 12.60L50.85 12.60Q51.47 12.60 51.82 12.34L51.82 12.34L51.82 12.34Q52.17 12.08 52.17 11.68L52.17 11.68L52.17 11.68Q52.17 11.40 52.01 11.22L52.01 11.22L52.01 11.22Q51.85 11.05 51.59 10.92L51.59 10.92L51.59 10.92Q51.32 10.79 50.99 10.70L50.99 10.70L50.99 10.70Q50.65 10.60 50.30 10.50L50.30 10.50L50.30 10.50Q49.95 10.39 49.62 10.25L49.62 10.25L49.62 10.25Q49.28 10.12 49.02 9.91L49.02 9.91L49.02 9.91Q48.75 9.69 48.59 9.39L48.59 9.39L48.59 9.39Q48.43 9.08 48.43 8.64L48.43 8.64L48.43 8.64Q48.43 8.14 48.65 7.70L48.65 7.70L48.65 7.70Q48.86 7.27 49.26 6.95L49.26 6.95L49.26 6.95Q49.66 6.63 50.23 6.45L50.23 6.45L50.23 6.45Q50.80 6.26 51.52 6.26L51.52 6.26L51.52 6.26Q51.69 6.26 51.93 6.28L51.93 6.28L51.93 6.28Q52.17 6.29 52.42 6.32L52.42 6.32L52.42 6.32Q52.68 6.35 52.94 6.40L52.94 6.40L52.94 6.40Q53.20 6.45 53.42 6.52L53.42 6.52L53.12 7.75L52.97 7.83L52.97 7.83Q52.77 7.73 52.53 7.66L52.53 7.66L52.53 7.66Q52.29 7.58 52.06 7.54L52.06 7.54L52.06 7.54Q51.82 7.49 51.60 7.47L51.60 7.47L51.60 7.47Q51.38 7.44 51.21 7.44L51.21 7.44L51.21 7.44Q50.61 7.44 50.27 7.68L50.27 7.68L50.27 7.68Q49.93 7.92 49.93 8.33L49.93 8.33L49.93 8.33Q49.93 8.61 50.09 8.79L50.09 8.79L50.09 8.79Q50.26 8.97 50.52 9.10L50.52 9.10L50.52 9.10Q50.78 9.22 51.13 9.31L51.13 9.31L51.13 9.31Q51.47 9.41 51.82 9.51L51.82 9.51L51.82 9.51Q52.17 9.62 52.51 9.75L52.51 9.75L52.51 9.75Q52.86 9.89 53.12 10.10L53.12 10.10L53.12 10.10Q53.38 10.32 53.55 10.62L53.55 10.62L53.55 10.62Q53.71 10.93 53.71 11.38L53.71 11.38L53.71 11.38Q53.71 11.89 53.49 12.33L53.49 12.33L53.49 12.33Q53.27 12.77 52.87 13.09L52.87 13.09L52.87 13.09Q52.47 13.41 51.90 13.60L51.90 13.60L51.90 13.60Q51.33 13.78 50.64 13.78L50.64 13.78L50.64 13.78Q50.07 13.78 49.44 13.66L49.44 13.66L49.44 13.66Q48.80 13.54 48.22 13.30L48.22 13.30ZM61.46 12.15L61.46 12.98L61.46 12.98Q61.16 13.19 60.81 13.34L60.81 13.34L60.81 13.34Q60.46 13.49 60.09 13.59L60.09 13.59L60.09 13.59Q59.73 13.69 59.36 13.74L59.36 13.74L59.36 13.74Q58.99 13.78 58.67 13.78L58.67 13.78L58.67 13.78Q57.91 13.78 57.25 13.55L57.25 13.55L57.25 13.55Q56.60 13.32 56.12 12.87L56.12 12.87L56.12 12.87Q55.64 12.41 55.36 11.75L55.36 11.75L55.36 11.75Q55.09 11.09 55.09 10.24L55.09 10.24L55.09 10.24Q55.09 9.33 55.40 8.59L55.40 8.59L55.40 8.59Q55.71 7.85 56.22 7.34L56.22 7.34L56.22 7.34Q56.74 6.82 57.42 6.54L57.42 6.54L57.42 6.54Q58.10 6.26 58.84 6.26L58.84 6.26L58.84 6.26Q59.45 6.26 59.98 6.46L59.98 6.46L59.98 6.46Q60.51 6.67 60.90 7.06L60.90 7.06L60.90 7.06Q61.28 7.46 61.50 8.05L61.50 8.05L61.50 8.05Q61.72 8.65 61.72 9.43L61.72 9.43L61.72 9.43Q61.72 9.63 61.70 9.84L61.70 9.84L61.70 9.84Q61.69 10.06 61.65 10.26L61.65 10.26L56.81 10.26L56.81 10.26Q56.81 10.81 57.00 11.24L57.00 11.24L57.00 11.24Q57.20 11.66 57.55 11.95L57.55 11.95L57.55 11.95Q57.91 12.23 58.41 12.38L58.41 12.38L58.41 12.38Q58.91 12.52 59.51 12.52L59.51 12.52L59.51 12.52Q59.68 12.52 59.91 12.51L59.91 12.51L59.91 12.51Q60.14 12.50 60.40 12.46L60.40 12.46L60.40 12.46Q60.66 12.41 60.93 12.34L60.93 12.34L60.93 12.34Q61.20 12.27 61.46 12.15L61.46 12.15ZM56.81 9.45L60.18 9.45L60.18 9.45Q60.18 8.96 60.06 8.58L60.06 8.58L60.06 8.58Q59.93 8.20 59.71 7.95L59.71 7.95L59.71 7.95Q59.49 7.70 59.20 7.57L59.20 7.57L59.20 7.57Q58.91 7.44 58.58 7.44L58.58 7.44L58.58 7.44Q58.20 7.44 57.88 7.59L57.88 7.59L57.88 7.59Q57.56 7.75 57.32 8.02L57.32 8.02L57.32 8.02Q57.08 8.29 56.94 8.65L56.94 8.65L56.94 8.65Q56.81 9.02 56.81 9.45L56.81 9.45Z"></path></g><!----><g data-v-423bf9ae="" id="c409365d-02b8-4899-b95b-f3fac1f76435" transform="matrix(1.013159805714157,0,0,1.013159805714157,-9.815719365547288,-6.083393674854825)" stroke="none" fill="white"><path d="M50 16.852v-1.515h8.5c2.481 0 4.5-2.019 4.5-4.5s-2.019-4.5-4.5-4.5h-20c-2.481 0-4.5 2.019-4.5 4.5s2.019 4.5 4.5 4.5H47v1.573c-20.514 1.213-36.833 18.279-36.833 39.092 0 21.597 17.57 39.166 39.167 39.166S88.5 77.599 88.5 56.002c0-21.373-17.211-38.792-38.5-39.15zm-13-6.015c0-.827.673-1.5 1.5-1.5h20c.827 0 1.5.673 1.5 1.5s-.673 1.5-1.5 1.5h-20c-.827 0-1.5-.673-1.5-1.5zm12.333 81.331c-19.942 0-36.167-16.224-36.167-36.166S29.39 19.835 49.333 19.835 85.5 36.06 85.5 56.002 69.276 92.168 49.333 92.168z"></path><path d="M71.226 36.229l-2.121-2.121L51.75 51.463a5.098 5.098 0 0 0-2.417-.628c-2.849 0-5.167 2.318-5.167 5.167s2.318 5.166 5.167 5.166 5.167-2.317 5.167-5.166c0-.878-.241-1.692-.629-2.418l17.355-17.355zM49.333 58.168a2.17 2.17 0 0 1-2.167-2.166c0-1.195.972-2.167 2.167-2.167s2.167.972 2.167 2.167a2.17 2.17 0 0 1-2.167 2.166z"></path></g><!----></svg>