<svg data-v-423bf9ae="" xmlns="http://www.w3.org/2000/svg" viewBox="0 0 481 90" class="iconLeft"><!----><!----><!----><g data-v-423bf9ae="" id="8696fa66-08c2-4af2-8dc5-7a133e9962f2" fill="white" transform="matrix(5.410279456668789,0,0,5.410279456668789,91.7353539961999,0.4463474751451244)"><path d="M3.10 13.64L1.41 13.64L1.41 3.63L7.50 3.63L7.27 4.83L3.10 4.83L3.10 7.85L6.79 7.85L6.58 9.02L3.10 9.02L3.10 13.64ZM12.02 13.78L12.02 13.78L12.02 13.78Q11.16 13.78 10.51 13.49L10.51 13.49L10.51 13.49Q9.86 13.21 9.41 12.72L9.41 12.72L9.41 12.72Q8.97 12.23 8.74 11.59L8.74 11.59L8.74 11.59Q8.51 10.94 8.51 10.23L8.51 10.23L8.51 10.23Q8.51 9.40 8.80 8.68L8.80 8.68L8.80 8.68Q9.10 7.96 9.63 7.42L9.63 7.42L9.63 7.42Q10.16 6.88 10.89 6.57L10.89 6.57L10.89 6.57Q11.62 6.26 12.50 6.26L12.50 6.26L12.50 6.26Q13.35 6.26 14.01 6.55L14.01 6.55L14.01 6.55Q14.66 6.84 15.11 7.33L15.11 7.33L15.11 7.33Q15.55 7.82 15.78 8.47L15.78 8.47L15.78 8.47Q16.01 9.11 16.01 9.83L16.01 9.83L16.01 9.83Q16.01 10.66 15.71 11.39L15.71 11.39L15.71 11.39Q15.42 12.11 14.88 12.64L14.88 12.64L14.88 12.64Q14.35 13.17 13.62 13.48L13.62 13.48L13.62 13.48Q12.89 13.78 12.02 13.78ZM12.30 12.60L12.30 12.60L12.30 12.60Q12.74 12.60 13.10 12.42L13.10 12.42L13.10 12.42Q13.47 12.24 13.73 11.91L13.73 11.91L13.73 11.91Q13.99 11.59 14.13 11.14L14.13 11.14L14.13 11.14Q14.27 10.68 14.27 10.14L14.27 10.14L14.27 10.14Q14.27 9.60 14.13 9.12L14.13 9.12L14.13 9.12Q13.99 8.63 13.73 8.26L13.73 8.26L13.73 8.26Q13.46 7.89 13.08 7.67L13.08 7.67L13.08 7.67Q12.69 7.44 12.21 7.44L12.21 7.44L12.21 7.44Q11.76 7.44 11.40 7.63L11.40 7.63L11.40 7.63Q11.04 7.81 10.78 8.14L10.78 8.14L10.78 8.14Q10.53 8.47 10.38 8.92L10.38 8.92L10.38 8.92Q10.24 9.38 10.24 9.92L10.24 9.92L10.24 9.92Q10.24 10.46 10.38 10.94L10.38 10.94L10.38 10.94Q10.52 11.43 10.79 11.80L10.79 11.80L10.79 11.80Q11.05 12.17 11.44 12.38L11.44 12.38L11.44 12.38Q11.82 12.60 12.30 12.60ZM23.09 12.15L23.09 12.98L23.09 12.98Q22.61 13.37 22.01 13.58L22.01 13.58L22.01 13.58Q21.42 13.78 20.73 13.78L20.73 13.78L20.73 13.78Q19.97 13.78 19.35 13.52L19.35 13.52L19.35 13.52Q18.74 13.27 18.31 12.81L18.31 12.81L18.31 12.81Q17.88 12.36 17.64 11.73L17.64 11.73L17.64 11.73Q17.41 11.09 17.41 10.34L17.41 10.34L17.41 10.34Q17.41 9.44 17.73 8.69L17.73 8.69L17.73 8.69Q18.04 7.94 18.58 7.40L18.58 7.40L18.58 7.40Q19.13 6.86 19.87 6.56L19.87 6.56L19.87 6.56Q20.60 6.26 21.45 6.26L21.45 6.26L21.45 6.26Q21.64 6.26 21.85 6.28L21.85 6.28L21.85 6.28Q22.06 6.30 22.28 6.33L22.28 6.33L22.28 6.33Q22.50 6.36 22.72 6.42L22.72 6.42L22.72 6.42Q22.93 6.48 23.12 6.56L23.12 6.56L22.83 7.83L22.68 7.90L22.68 7.90Q22.56 7.81 22.39 7.73L22.39 7.73L22.39 7.73Q22.22 7.64 22.03 7.58L22.03 7.58L22.03 7.58Q21.84 7.52 21.64 7.48L21.64 7.48L21.64 7.48Q21.43 7.44 21.23 7.44L21.23 7.44L21.23 7.44Q20.79 7.44 20.42 7.62L20.42 7.62L20.42 7.62Q20.04 7.79 19.75 8.11L19.75 8.11L19.75 8.11Q19.47 8.44 19.30 8.92L19.30 8.92L19.30 8.92Q19.14 9.39 19.14 9.99L19.14 9.99L19.14 9.99Q19.14 10.62 19.32 11.09L19.32 11.09L19.32 11.09Q19.50 11.57 19.81 11.88L19.81 11.88L19.81 11.88Q20.13 12.20 20.56 12.36L20.56 12.36L20.56 12.36Q20.99 12.52 21.49 12.52L21.49 12.52L21.49 12.52Q21.81 12.52 22.21 12.45L22.21 12.45L22.21 12.45Q22.61 12.37 23.09 12.15L23.09 12.15ZM24.97 11.23L24.97 6.40L26.63 6.40L26.63 10.97L26.63 10.97Q26.63 11.32 26.72 11.60L26.72 11.60L26.72 11.60Q26.82 11.89 26.99 12.09L26.99 12.09L26.99 12.09Q27.16 12.30 27.40 12.41L27.40 12.41L27.40 12.41Q27.64 12.52 27.92 12.52L27.92 12.52L27.92 12.52Q28.17 12.52 28.41 12.44L28.41 12.44L28.41 12.44Q28.64 12.36 28.86 12.23L28.86 12.23L28.86 12.23Q29.08 12.09 29.28 11.92L29.28 11.92L29.28 11.92Q29.48 11.74 29.65 11.55L29.65 11.55L29.65 6.40L31.31 6.40L31.31 13.64L29.97 13.64L29.72 12.42L29.72 12.42Q29.48 12.65 29.19 12.89L29.19 12.89L29.19 12.89Q28.90 13.13 28.58 13.33L28.58 13.33L28.58 13.33Q28.26 13.53 27.90 13.65L27.90 13.65L27.90 13.65Q27.54 13.78 27.15 13.78L27.15 13.78L27.15 13.78Q26.71 13.78 26.31 13.60L26.31 13.60L26.31 13.60Q25.92 13.43 25.62 13.10L25.62 13.10L25.62 13.10Q25.32 12.77 25.15 12.30L25.15 12.30L25.15 12.30Q24.97 11.83 24.97 11.23L24.97 11.23ZM33.13 13.30L33.43 12.06L33.55 11.98L33.55 11.98Q33.82 12.13 34.11 12.24L34.11 12.24L34.11 12.24Q34.40 12.36 34.69 12.44L34.69 12.44L34.69 12.44Q34.97 12.52 35.25 12.56L35.25 12.56L35.25 12.56Q35.52 12.60 35.76 12.60L35.76 12.60L35.76 12.60Q36.38 12.60 36.73 12.34L36.73 12.34L36.73 12.34Q37.08 12.08 37.08 11.68L37.08 11.68L37.08 11.68Q37.08 11.40 36.92 11.22L36.92 11.22L36.92 11.22Q36.76 11.05 36.50 10.92L36.50 10.92L36.50 10.92Q36.24 10.79 35.90 10.70L35.90 10.70L35.90 10.70Q35.57 10.60 35.22 10.50L35.22 10.50L35.22 10.50Q34.86 10.39 34.53 10.25L34.53 10.25L34.53 10.25Q34.19 10.12 33.93 9.91L33.93 9.91L33.93 9.91Q33.67 9.69 33.51 9.39L33.51 9.39L33.51 9.39Q33.35 9.08 33.35 8.64L33.35 8.64L33.35 8.64Q33.35 8.14 33.56 7.70L33.56 7.70L33.56 7.70Q33.78 7.27 34.18 6.95L34.18 6.95L34.18 6.95Q34.58 6.63 35.15 6.45L35.15 6.45L35.15 6.45Q35.72 6.26 36.43 6.26L36.43 6.26L36.43 6.26Q36.61 6.26 36.84 6.28L36.84 6.28L36.84 6.28Q37.08 6.29 37.33 6.32L37.33 6.32L37.33 6.32Q37.59 6.35 37.85 6.40L37.85 6.40L37.85 6.40Q38.11 6.45 38.34 6.52L38.34 6.52L38.04 7.75L37.88 7.83L37.88 7.83Q37.68 7.73 37.44 7.66L37.44 7.66L37.44 7.66Q37.21 7.58 36.97 7.54L36.97 7.54L36.97 7.54Q36.74 7.49 36.51 7.47L36.51 7.47L36.51 7.47Q36.29 7.44 36.12 7.44L36.12 7.44L36.12 7.44Q35.52 7.44 35.18 7.68L35.18 7.68L35.18 7.68Q34.84 7.92 34.84 8.33L34.84 8.33L34.84 8.33Q34.84 8.61 35.01 8.79L35.01 8.79L35.01 8.79Q35.17 8.97 35.43 9.10L35.43 9.10L35.43 9.10Q35.70 9.22 36.04 9.31L36.04 9.31L36.04 9.31Q36.38 9.41 36.73 9.51L36.73 9.51L36.73 9.51Q37.08 9.62 37.43 9.75L37.43 9.75L37.43 9.75Q37.77 9.89 38.03 10.10L38.03 10.10L38.03 10.10Q38.29 10.32 38.46 10.62L38.46 10.62L38.46 10.62Q38.62 10.93 38.62 11.38L38.62 11.38L38.62 11.38Q38.62 11.89 38.40 12.33L38.40 12.33L38.40 12.33Q38.19 12.77 37.78 13.09L37.78 13.09L37.78 13.09Q37.38 13.41 36.81 13.60L36.81 13.60L36.81 13.60Q36.24 13.78 35.55 13.78L35.55 13.78L35.55 13.78Q34.99 13.78 34.35 13.66L34.35 13.66L34.35 13.66Q33.71 13.54 33.13 13.30L33.13 13.30ZM42.41 13.64L40.71 13.64L40.71 3.63L46.81 3.63L46.58 4.83L42.41 4.83L42.41 7.85L46.10 7.85L45.88 9.02L42.41 9.02L42.41 13.64ZM48.61 13.64L48.61 2.69L50.26 2.69L50.26 13.64L48.61 13.64ZM55.61 13.78L55.61 13.78L55.61 13.78Q54.76 13.78 54.10 13.49L54.10 13.49L54.10 13.49Q53.45 13.21 53.01 12.72L53.01 12.72L53.01 12.72Q52.56 12.23 52.33 11.59L52.33 11.59L52.33 11.59Q52.10 10.94 52.10 10.23L52.10 10.23L52.10 10.23Q52.10 9.40 52.40 8.68L52.40 8.68L52.40 8.68Q52.69 7.96 53.22 7.42L53.22 7.42L53.22 7.42Q53.75 6.88 54.48 6.57L54.48 6.57L54.48 6.57Q55.21 6.26 56.09 6.26L56.09 6.26L56.09 6.26Q56.94 6.26 57.60 6.55L57.60 6.55L57.60 6.55Q58.26 6.84 58.70 7.33L58.70 7.33L58.70 7.33Q59.14 7.82 59.37 8.47L59.37 8.47L59.37 8.47Q59.60 9.11 59.60 9.83L59.60 9.83L59.60 9.83Q59.60 10.66 59.31 11.39L59.31 11.39L59.31 11.39Q59.01 12.11 58.47 12.64L58.47 12.64L58.47 12.64Q57.94 13.17 57.21 13.48L57.21 13.48L57.21 13.48Q56.48 13.78 55.61 13.78ZM55.90 12.60L55.90 12.60L55.90 12.60Q56.33 12.60 56.70 12.42L56.70 12.42L56.70 12.42Q57.06 12.24 57.32 11.91L57.32 11.91L57.32 11.91Q57.58 11.59 57.72 11.14L57.72 11.14L57.72 11.14Q57.87 10.68 57.87 10.14L57.87 10.14L57.87 10.14Q57.87 9.60 57.73 9.12L57.73 9.12L57.73 9.12Q57.59 8.63 57.32 8.26L57.32 8.26L57.32 8.26Q57.05 7.89 56.67 7.67L56.67 7.67L56.67 7.67Q56.29 7.44 55.80 7.44L55.80 7.44L55.80 7.44Q55.36 7.44 55.00 7.63L55.00 7.63L55.00 7.63Q54.63 7.81 54.38 8.14L54.38 8.14L54.38 8.14Q54.12 8.47 53.98 8.92L53.98 8.92L53.98 8.92Q53.83 9.38 53.83 9.92L53.83 9.92L53.83 9.92Q53.83 10.46 53.97 10.94L53.97 10.94L53.97 10.94Q54.11 11.43 54.38 11.80L54.38 11.80L54.38 11.80Q54.65 12.17 55.03 12.38L55.03 12.38L55.03 12.38Q55.41 12.60 55.90 12.60ZM60.65 6.40L62.45 6.40L63.62 11.17L63.83 12.40L63.96 12.40L64.20 11.18L65.48 6.62L67.33 6.62L68.61 11.17L68.86 12.40L69.00 12.40L69.21 11.18L70.38 6.40L71.91 6.40L69.73 13.64L67.88 13.64L66.66 9.46L66.36 8.09L66.23 8.09L65.91 9.47L64.66 13.64L62.81 13.64L60.65 6.40Z"></path></g><!----><g data-v-423bf9ae="" id="ba08242e-bd59-45d5-a202-91ad9a3acfaf" transform="matrix(1.013159805714157,0,0,1.013159805714157,-9.815719365547288,-6.083393674854825)" stroke="none" fill="white"><path d="M50 16.852v-1.515h8.5c2.481 0 4.5-2.019 4.5-4.5s-2.019-4.5-4.5-4.5h-20c-2.481 0-4.5 2.019-4.5 4.5s2.019 4.5 4.5 4.5H47v1.573c-20.514 1.213-36.833 18.279-36.833 39.092 0 21.597 17.57 39.166 39.167 39.166S88.5 77.599 88.5 56.002c0-21.373-17.211-38.792-38.5-39.15zm-13-6.015c0-.827.673-1.5 1.5-1.5h20c.827 0 1.5.673 1.5 1.5s-.673 1.5-1.5 1.5h-20c-.827 0-1.5-.673-1.5-1.5zm12.333 81.331c-19.942 0-36.167-16.224-36.167-36.166S29.39 19.835 49.333 19.835 85.5 36.06 85.5 56.002 69.276 92.168 49.333 92.168z"></path><path d="M71.226 36.229l-2.121-2.121L51.75 51.463a5.098 5.098 0 0 0-2.417-.628c-2.849 0-5.167 2.318-5.167 5.167s2.318 5.166 5.167 5.166 5.167-2.317 5.167-5.166c0-.878-.241-1.692-.629-2.418l17.355-17.355zM49.333 58.168a2.17 2.17 0 0 1-2.167-2.166c0-1.195.972-2.167 2.167-2.167s2.167.972 2.167 2.167a2.17 2.17 0 0 1-2.167 2.166z"></path></g><!----></svg>