<svg data-v-423bf9ae="" xmlns="http://www.w3.org/2000/svg" viewBox="0 0 311 90" class="iconLeft"><!----><!----><!----><g data-v-423bf9ae="" id="1b154692-9e3f-4676-8fc7-d9eea53fc44b" fill="white" transform="matrix(5.665722297967836,0,0,5.665722297967836,116.58384530184448,-7.832862526363378)"><path d="M2.56 4.33L2.56 14.52L1.18 14.52L1.18 4.33L2.56 4.33ZM10.72 10.36L10.72 14.52L9.37 14.52L9.37 9.98L9.37 9.98Q9.37 9.54 9.37 9.28L9.37 9.28L9.37 9.28Q9.37 9.02 9.34 8.75L9.34 8.75L9.34 8.75Q9.32 8.48 9.29 8.35L9.29 8.35L9.29 8.35Q9.26 8.22 9.19 8.08L9.19 8.08L9.19 8.08Q9.12 7.95 9.04 7.90L9.04 7.90L9.04 7.90Q8.97 7.85 8.83 7.81L8.83 7.81L8.83 7.81Q8.68 7.77 8.54 7.76L8.54 7.76L8.54 7.76Q8.39 7.75 8.16 7.75L8.16 7.75L8.16 7.75Q7.64 7.75 7.27 7.81L7.27 7.81L7.27 7.81Q6.90 7.87 6.67 7.97L6.67 7.97L6.67 7.97Q6.44 8.07 6.31 8.26L6.31 8.26L6.31 8.26Q6.19 8.44 6.14 8.66L6.14 8.66L6.14 8.66Q6.09 8.87 6.09 9.19L6.09 9.19L6.09 9.19Q6.09 9.37 6.11 9.81L6.11 9.81L6.11 9.81Q6.13 10.25 6.13 10.52L6.13 10.52L6.13 14.52L4.79 14.52L4.79 7.02L6.02 7.02L6.15 7.86L6.15 7.86Q6.32 7.30 6.93 7.05L6.93 7.05L6.93 7.05Q7.54 6.81 8.38 6.81L8.38 6.81L8.38 6.81Q8.78 6.81 9.08 6.86L9.08 6.86L9.08 6.86Q9.39 6.90 9.63 7.02L9.63 7.02L9.63 7.02Q9.87 7.13 10.05 7.27L10.05 7.27L10.05 7.27Q10.22 7.42 10.34 7.65L10.34 7.65L10.34 7.65Q10.46 7.89 10.53 8.13L10.53 8.13L10.53 8.13Q10.61 8.38 10.65 8.75L10.65 8.75L10.65 8.75Q10.69 9.12 10.71 9.48L10.71 9.48L10.71 9.48Q10.72 9.85 10.72 10.36L10.72 10.36ZM18.97 10.34L18.97 10.34L18.97 10.34Q18.97 10.86 18.96 11.20L18.96 11.20L18.96 11.20Q18.96 11.55 18.94 11.95L18.94 11.95L18.94 11.95Q18.92 12.35 18.87 12.61L18.87 12.61L18.87 12.61Q18.83 12.87 18.76 13.16L18.76 13.16L18.76 13.16Q18.70 13.45 18.59 13.62L18.59 13.62L18.59 13.62Q18.49 13.80 18.35 13.99L18.35 13.99L18.35 13.99Q18.20 14.17 18.01 14.27L18.01 14.27L18.01 14.27Q17.82 14.38 17.58 14.46L17.58 14.46L17.58 14.46Q17.33 14.55 17.02 14.59L17.02 14.59L17.02 14.59Q16.71 14.62 16.34 14.62L16.34 14.62L16.34 14.62Q14.55 14.62 14.16 13.58L14.16 13.58L14.03 14.52L12.80 14.52L12.80 4.14L14.15 4.03L14.15 7.85L14.15 7.85Q14.38 7.31 14.88 7.06L14.88 7.06L14.88 7.06Q15.37 6.81 16.23 6.81L16.23 6.81L16.23 6.81Q16.69 6.81 17.07 6.87L17.07 6.87L17.07 6.87Q17.44 6.92 17.72 7.05L17.72 7.05L17.72 7.05Q17.99 7.18 18.20 7.35L18.20 7.35L18.20 7.35Q18.40 7.51 18.54 7.76L18.54 7.76L18.54 7.76Q18.68 8.00 18.76 8.26L18.76 8.26L18.76 8.26Q18.85 8.51 18.89 8.87L18.89 8.87L18.89 8.87Q18.94 9.23 18.96 9.56L18.96 9.56L18.96 9.56Q18.97 9.88 18.97 10.34ZM17.63 12.13L17.62 9.32L17.62 9.32Q17.62 9.02 17.62 8.88L17.62 8.88L17.62 8.88Q17.62 8.73 17.59 8.53L17.59 8.53L17.59 8.53Q17.57 8.33 17.53 8.25L17.53 8.25L17.53 8.25Q17.49 8.17 17.40 8.06L17.40 8.06L17.40 8.06Q17.32 7.94 17.20 7.90L17.20 7.90L17.20 7.90Q17.08 7.86 16.89 7.82L16.89 7.82L16.89 7.82Q16.70 7.77 16.47 7.76L16.47 7.76L16.47 7.76Q16.24 7.75 15.91 7.75L15.91 7.75L15.91 7.75Q15.22 7.75 14.83 7.85L14.83 7.85L14.83 7.85Q14.44 7.95 14.27 8.18L14.27 8.18L14.27 8.18Q14.15 8.42 14.15 9.24L14.15 9.24L14.15 12.68L14.15 12.68Q14.15 13.24 14.55 13.46L14.55 13.46L14.55 13.46Q14.94 13.69 15.91 13.69L15.91 13.69L15.91 13.69Q16.88 13.69 17.24 13.51L17.24 13.51L17.24 13.51Q17.63 13.38 17.63 12.13L17.63 12.13ZM23.83 13.68L23.83 13.68L23.83 13.68Q24.80 13.66 25.18 13.54L25.18 13.54L25.18 13.54Q25.56 13.41 25.56 13.05L25.56 13.05L25.56 13.05Q25.63 12.07 25.63 10.79L25.63 10.79L25.63 10.79Q25.63 10.36 25.60 9.57L25.60 9.57L25.60 9.57Q25.57 8.78 25.57 8.40L25.57 8.40L25.57 8.40Q25.57 8.29 25.53 8.19L25.53 8.19L25.53 8.19Q25.49 8.09 25.41 8.03L25.41 8.03L25.41 8.03Q25.32 7.96 25.23 7.92L25.23 7.92L25.23 7.92Q25.15 7.87 25.00 7.84L25.00 7.84L25.00 7.84Q24.84 7.81 24.74 7.79L24.74 7.79L24.74 7.79Q24.63 7.77 24.44 7.77L24.44 7.77L24.44 7.77Q24.24 7.76 24.13 7.76L24.13 7.76L24.13 7.76Q24.03 7.76 23.82 7.76L23.82 7.76L23.82 7.76Q23.62 7.76 23.51 7.76L23.51 7.76L23.51 7.76Q23.41 7.76 23.21 7.77L23.21 7.77L23.21 7.77Q23.02 7.77 22.91 7.79L22.91 7.79L22.91 7.79Q22.80 7.81 22.65 7.84L22.65 7.84L22.65 7.84Q22.50 7.87 22.41 7.92L22.41 7.92L22.41 7.92Q22.33 7.96 22.24 8.03L22.24 8.03L22.24 8.03Q22.16 8.09 22.12 8.19L22.12 8.19L22.12 8.19Q22.08 8.29 22.08 8.40L22.08 8.40L22.08 8.40Q22.08 8.78 22.05 9.57L22.05 9.57L22.05 9.57Q22.01 10.36 22.01 10.79L22.01 10.79L22.01 10.79Q22.01 12.07 22.09 13.05L22.09 13.05L22.09 13.05Q22.09 13.41 22.49 13.55L22.49 13.55L22.49 13.55Q22.89 13.68 23.83 13.68ZM23.82 14.62L23.82 14.62L23.82 14.62Q23.06 14.62 22.55 14.56L22.55 14.56L22.55 14.56Q22.05 14.50 21.68 14.29L21.68 14.29L21.68 14.29Q21.31 14.08 21.12 13.85L21.12 13.85L21.12 13.85Q20.93 13.61 20.82 13.10L20.82 13.10L20.82 13.10Q20.71 12.59 20.69 12.09L20.69 12.09L20.69 12.09Q20.67 11.59 20.67 10.71L20.67 10.71L20.67 10.71Q20.67 10.04 20.68 9.60L20.68 9.60L20.68 9.60Q20.70 9.15 20.76 8.73L20.76 8.73L20.76 8.73Q20.82 8.30 20.91 8.04L20.91 8.04L20.91 8.04Q21.01 7.77 21.18 7.54L21.18 7.54L21.18 7.54Q21.36 7.30 21.57 7.18L21.57 7.18L21.57 7.18Q21.79 7.05 22.13 6.96L22.13 6.96L22.13 6.96Q22.47 6.87 22.87 6.84L22.87 6.84L22.87 6.84Q23.27 6.81 23.82 6.81L23.82 6.81L23.82 6.81Q24.38 6.81 24.78 6.84L24.78 6.84L24.78 6.84Q25.18 6.87 25.52 6.96L25.52 6.96L25.52 6.96Q25.85 7.05 26.07 7.18L26.07 7.18L26.07 7.18Q26.29 7.30 26.47 7.54L26.47 7.54L26.47 7.54Q26.64 7.77 26.73 8.04L26.73 8.04L26.73 8.04Q26.82 8.30 26.89 8.73L26.89 8.73L26.89 8.73Q26.95 9.15 26.96 9.60L26.96 9.60L26.96 9.60Q26.98 10.04 26.98 10.71L26.98 10.71L26.98 10.71Q26.98 11.59 26.96 12.09L26.96 12.09L26.96 12.09Q26.93 12.59 26.82 13.10L26.82 13.10L26.82 13.10Q26.71 13.61 26.52 13.85L26.52 13.85L26.52 13.85Q26.33 14.09 25.96 14.29L25.96 14.29L25.96 14.29Q25.59 14.50 25.09 14.56L25.09 14.56L25.09 14.56Q24.58 14.62 23.82 14.62ZM31.88 10.67L34.21 14.52L32.80 14.52L31.12 11.58L29.43 14.52L28.03 14.52L30.39 10.66L28.08 7.02L29.49 7.02L31.12 9.82L32.76 7.02L34.15 7.02L31.88 10.67Z"></path></g><!----><g data-v-423bf9ae="" id="261e578c-66b0-47d8-910c-f544fb9e5f4c" transform="matrix(1.1547641038035477,0,0,1.1547641038035477,-6.50741493238889,-15.158186265877518)" stroke="none" fill="white"><path d="M78.255 91.883l-1.127-.861c-1.32-.88-7.38-5.82-13.409-11.87a.726.726 0 0 0-.426-.21 19.767 19.767 0 0 1-9.266-3.646.746.746 0 0 0-.789-.047c-2.429 1.367-5.113 2.06-7.981 2.06-4.556 0-8.882-1.877-11.871-5.15a.743.743 0 0 0-.875-.157c-2.313 1.188-5.04 2.403-7.718 2.403-4.287 0-6.929-.752-10.345-5.022a.748.748 0 0 1-.14-.312c-7.996-2.497-8.669-7.628-8.669-12.674 0-1.853.389-3.747 1.125-5.477a.733.733 0 0 0 0-.574 14.102 14.102 0 0 1-1.125-5.479c0-6.254 4.196-11.829 10.441-13.872a.732.732 0 0 0 .473-.486c1.876-6.293 8.059-10.688 15.034-10.688.652 0 1.313.039 1.964.117.263-.004.512-.093.652-.263 2.949-3.588 7.575-5.73 12.373-5.73 4.181 0 8.101 1.527 11.036 4.3a.738.738 0 0 0 .732.163 23.74 23.74 0 0 1 7.429-1.179c10.58 0 19.617 6.739 21.977 16.389.046.187.16.346.323.447 4.38 2.731 6.995 7.313 6.995 12.255 0 3.484-1.326 6.87-3.732 9.532a.729.729 0 0 0-.165.674c.294 1.138.443 2.313.443 3.496 0 5.3-3.054 10.211-7.969 12.817a.721.721 0 0 0-.298.294c-1.138 2.061-2.976 3.757-5.177 4.775a.73.73 0 0 0-.425.692l.51 13.283zm-24.66-17.704c.364 0 .712.113 1.008.328a18.793 18.793 0 0 0 8.806 3.466c.372.043.729.217 1.001.489 5.463 5.481 10.923 10.026 12.792 11.415l-.43-11.24a1.706 1.706 0 0 1 .989-1.615c2.014-.933 3.694-2.48 4.731-4.36.161-.293.401-.53.696-.687 4.595-2.436 7.449-7.017 7.449-11.954 0-1.1-.139-2.193-.412-3.251a1.699 1.699 0 0 1 .386-1.572c2.245-2.483 3.48-5.637 3.48-8.878 0-4.603-2.443-8.875-6.535-11.427a1.703 1.703 0 0 1-.755-1.044c-2.252-9.211-10.899-15.644-21.028-15.644-2.444 0-4.841.38-7.124 1.13a1.723 1.723 0 0 1-1.707-.38c-2.754-2.602-6.436-4.034-10.366-4.034-4.51 0-8.854 2.01-11.62 5.375a1.712 1.712 0 0 1-1.519.612 15.572 15.572 0 0 0-1.852-.111c-6.547 0-12.345 4.108-14.099 9.991-.159.536-.572.96-1.104 1.135-5.844 1.913-9.769 7.114-9.769 12.945 0 1.726.362 3.488 1.046 5.095.182.424.182.913.001 1.338a13.12 13.12 0 0 0-1.047 5.096c0 4.92.626 9.524 8.192 11.807.347.106.414.45.442.597 3.147 3.956 5.493 4.628 9.544 4.628 2.484 0 5.192-1.227 7.272-2.296a1.745 1.745 0 0 1 2.042.369c2.804 3.07 6.868 4.831 11.15 4.831 2.698 0 5.221-.649 7.5-1.932.253-.145.544-.222.84-.222zm21.807 12.062l-.962-1.154c-1.135-1.361-2.8-2.786-4.41-4.164-.944-.808-1.835-1.57-2.623-2.318l-.263-.249a421.7 421.7 0 0 1-2.062-1.97l-.253-.243-.354-.026a17.077 17.077 0 0 1-7.188-2.199c-.025-.015-1.971-1.179-2.822-2.064-2.413 1.588-6.425 2.527-9.09 2.527-4.651 0-8.533-1.712-10.651-4.696-.057-.065-.263-.244-.503-.46-.513-.458-.841-.762-1.047-.985l-1.841.925c-.646.323-1.176.62-1.651.887-1.253.702-2.16 1.21-3.727 1.421-4.421.602-8.22-1.321-9.819-4.904l-.173-.116c-5.825-1.886-7.151-3.673-7.407-10.037-.07-1.738.389-3.526 1.363-5.316l.255-.468-.253-.466a10.962 10.962 0 0 1-1.358-5.298c0-5.474 4.005-10.182 9.741-11.448l.638-.141.114-.646c.995-5.726 6.264-9.883 12.528-9.883 1.019 0 2.036.114 3.023.339l.668.15.37-.579c2.277-3.569 6.464-5.786 10.928-5.786 2.862 0 5.563.865 7.81 2.501.024.018 2.041 1.539 2.545 2.398 2.446-.93 6.171-1.617 8.841-1.617 9.62 0 17.76 6.39 19.354 15.194l.086.472.425.222c4.011 2.085 6.503 6.023 6.503 10.277 0 2.296-.966 4.669-2.793 6.863l-1.746 1.802c.043.127.087.281.14.474.029.106.054.197.07.243l.101.25c.518 1.305.78 2.674.78 4.07-.002 4.522-2.725 8.573-7.104 10.571l-.337.154-.151.343c-1.087 2.474-3.418 4.28-6.234 4.831l-.145.048.684 10.271zm-20.36-15.174c.32.406 2.241 1.722 2.731 2.003a16.111 16.111 0 0 0 6.775 2.073l.703.052.508.486c.778.751 1.454 1.394 2.058 1.967l.262.249c.77.73 1.651 1.484 2.585 2.283 1.24 1.062 2.512 2.149 3.571 3.231l-.543-8.135.925-.3c2.56-.505 4.627-2.1 5.585-4.282l.301-.682.676-.31c4.028-1.838 6.531-5.549 6.533-9.684 0-1.273-.239-2.521-.71-3.709l-.1-.247a4.354 4.354 0 0 1-.105-.348c-.042-.151-.129-.466-.173-.548l-.346-.34.387-.286 1.953-2.014c1.654-1.988 2.542-4.146 2.542-6.21 0-3.888-2.29-7.494-5.978-9.411l-.849-.442-.172-.943c-1.51-8.34-9.245-14.393-18.393-14.393-2.678 0-6.455.717-8.786 1.668l-.3.122-.606-.603-.007-.111c-.26-.393-1.841-1.737-2.262-2.046-2.078-1.513-4.58-2.313-7.234-2.313-4.134 0-8.006 2.044-10.105 5.335l-.74 1.157-1.337-.302a12.657 12.657 0 0 0-2.808-.315c-5.789 0-10.653 3.816-11.567 9.075l-.227 1.29-1.276.283c-5.285 1.167-8.976 5.483-8.976 10.495 0 1.696.417 3.322 1.24 4.832l.507.932-.509.935c-.889 1.633-1.308 3.251-1.245 4.811.25 6.229 1.592 7.484 6.797 9.174l.407.232.27.338c1.401 3.209 4.819 4.926 8.819 4.386 1.383-.187 2.178-.632 3.38-1.306.486-.272 1.03-.577 1.69-.908l2.925-1.469v.676c.176.218.758.737 1.051.999.427.382.572.515.649.622 1.933 2.724 5.525 4.285 9.855 4.285 2.597 0 6.735-.995 8.894-2.604l.71-.529.065.799z"></path><path d="M34.168 45.223c-1.503 0-2.725-1.222-2.725-2.725s1.222-2.724 2.725-2.724c1.502 0 2.725 1.222 2.725 2.724s-1.222 2.725-2.725 2.725zm0-4.473c-.964 0-1.75.785-1.75 1.749 0 .964.785 1.749 1.75 1.749s1.749-.785 1.749-1.749a1.75 1.75 0 0 0-1.749-1.749zM58.326 36.052c-1.503 0-2.726-1.222-2.726-2.725s1.223-2.725 2.726-2.725c1.502 0 2.725 1.222 2.725 2.725s-1.223 2.725-2.725 2.725zm0-4.473c-.965 0-1.749.785-1.749 1.749s.784 1.749 1.749 1.749c.964 0 1.748-.785 1.748-1.749s-.784-1.749-1.748-1.749zM67.944 52.971a2.73 2.73 0 0 1-2.726-2.726 2.729 2.729 0 0 1 2.726-2.725 2.728 2.728 0 0 1 2.725 2.725 2.729 2.729 0 0 1-2.725 2.726zm0-4.475a1.75 1.75 0 0 0 0 3.498 1.75 1.75 0 0 0 0-3.498zM49.603 47.905c-1.503 0-2.725-1.222-2.725-2.725s1.222-2.725 2.725-2.725c1.502 0 2.725 1.222 2.725 2.725s-1.224 2.725-2.725 2.725zm0-4.474c-.964 0-1.75.785-1.75 1.749s.785 1.749 1.75 1.749c.964 0 1.748-.785 1.748-1.749s-.785-1.749-1.748-1.749zM35.734 60.435a2.728 2.728 0 0 1-2.724-2.726c0-1.502 1.222-2.725 2.724-2.725s2.725 1.223 2.725 2.725a2.73 2.73 0 0 1-2.725 2.726zm0-4.474a1.75 1.75 0 0 0-1.749 1.748 1.75 1.75 0 0 0 1.749 1.749 1.75 1.75 0 0 0 1.749-1.749 1.75 1.75 0 0 0-1.749-1.748zM63.359 63.789a2.73 2.73 0 0 1-2.727-2.726 2.729 2.729 0 0 1 2.727-2.724 2.727 2.727 0 0 1 2.724 2.724 2.728 2.728 0 0 1-2.724 2.726zm0-4.473a1.75 1.75 0 0 0-1.75 1.747 1.75 1.75 0 1 0 1.75-1.747z"></path><path d="M55.907 32.873l.366.906-19.907 8.053-.367-.906zM57.964 35.24l.725.653-7.05 7.825-.726-.653zM52.08 45.27l13.732 3.732-.256.942-13.733-3.732z"></path><path d="M65.552 49.493l.263.939-27.715 7.75-.263-.94z"></path><path d="M38.05 57.229l23.152 3.803-.158.963-23.152-3.803zM67.994 41.637l.156.963-16.12 2.613-.156-.963z"></path><path d="M66.419 44.063l1.369-1.898-1.899-1.369 1.386-.225 1.899 1.368-1.368 1.899zM63.978 55.34l.063 3.435-.977.018L63 55.357z"></path><path d="M64.873 56.92l-1.382-1.333-1.332 1.382-.02-1.153 1.332-1.38 1.381 1.332z"></path><g><path d="M41.02 47.695l.847.484-4.367 7.643-.848-.484z"></path><path d="M41.916 50.45l-.616-2.258-2.258.616.697-1.22 2.258-.615.616 2.257z"></path></g><g><path d="M43.572 31.205l12.785.77-.059.975-12.785-.771z"></path><path d="M45.583 30.155l-1.752 1.553 1.553 1.751-1.402-.084-1.552-1.752 1.751-1.552z"></path></g></g><!----></svg>