<svg data-v-423bf9ae="" xmlns="http://www.w3.org/2000/svg" viewBox="0 0 277 90" class="iconLeft"><!----><!----><!----><g data-v-423bf9ae="" id="b600f54d-d9b7-4221-a89f-623a80cda6d4" fill="#FFFFFF" transform="matrix(4.6692612548425885,0,0,4.6692612548425885,104.16194051988836,-3.817122406154155)"><path d="M6.67 4.33L6.67 5.39L4.01 5.39L4.01 14.52L2.63 14.52L2.63 5.39L0.02 5.39L0.02 4.33L6.67 4.33ZM10.47 13.68L10.47 13.68L10.47 13.68Q11.44 13.66 11.82 13.54L11.82 13.54L11.82 13.54Q12.20 13.41 12.20 13.05L12.20 13.05L12.20 13.05Q12.28 12.07 12.28 10.79L12.28 10.79L12.28 10.79Q12.28 10.36 12.24 9.57L12.24 9.57L12.24 9.57Q12.21 8.78 12.21 8.40L12.21 8.40L12.21 8.40Q12.21 8.29 12.17 8.19L12.17 8.19L12.17 8.19Q12.13 8.09 12.05 8.03L12.05 8.03L12.05 8.03Q11.96 7.96 11.88 7.92L11.88 7.92L11.88 7.92Q11.79 7.87 11.64 7.84L11.64 7.84L11.64 7.84Q11.48 7.81 11.38 7.79L11.38 7.79L11.38 7.79Q11.27 7.77 11.08 7.77L11.08 7.77L11.08 7.77Q10.88 7.76 10.78 7.76L10.78 7.76L10.78 7.76Q10.67 7.76 10.47 7.76L10.47 7.76L10.47 7.76Q10.26 7.76 10.15 7.76L10.15 7.76L10.15 7.76Q10.05 7.76 9.85 7.77L9.85 7.77L9.85 7.77Q9.66 7.77 9.55 7.79L9.55 7.79L9.55 7.79Q9.45 7.81 9.29 7.84L9.29 7.84L9.29 7.84Q9.14 7.87 9.05 7.92L9.05 7.92L9.05 7.92Q8.97 7.96 8.88 8.03L8.88 8.03L8.88 8.03Q8.80 8.09 8.76 8.19L8.76 8.19L8.76 8.19Q8.72 8.29 8.72 8.40L8.72 8.40L8.72 8.40Q8.72 8.78 8.69 9.57L8.69 9.57L8.69 9.57Q8.65 10.36 8.65 10.79L8.65 10.79L8.65 10.79Q8.65 12.07 8.73 13.05L8.73 13.05L8.73 13.05Q8.73 13.41 9.13 13.55L9.13 13.55L9.13 13.55Q9.53 13.68 10.47 13.68ZM10.46 14.62L10.46 14.62L10.46 14.62Q9.70 14.62 9.19 14.56L9.19 14.56L9.19 14.56Q8.69 14.50 8.32 14.29L8.32 14.29L8.32 14.29Q7.96 14.08 7.77 13.85L7.77 13.85L7.77 13.85Q7.57 13.61 7.46 13.10L7.46 13.10L7.46 13.10Q7.36 12.59 7.33 12.09L7.33 12.09L7.33 12.09Q7.31 11.59 7.31 10.71L7.31 10.71L7.31 10.71Q7.31 10.04 7.32 9.60L7.32 9.60L7.32 9.60Q7.34 9.15 7.40 8.73L7.40 8.73L7.40 8.73Q7.46 8.30 7.56 8.04L7.56 8.04L7.56 8.04Q7.65 7.77 7.82 7.54L7.82 7.54L7.82 7.54Q8.00 7.30 8.22 7.18L8.22 7.18L8.22 7.18Q8.44 7.05 8.77 6.96L8.77 6.96L8.77 6.96Q9.11 6.87 9.51 6.84L9.51 6.84L9.51 6.84Q9.91 6.81 10.47 6.81L10.47 6.81L10.47 6.81Q11.02 6.81 11.42 6.84L11.42 6.84L11.42 6.84Q11.82 6.87 12.16 6.96L12.16 6.96L12.16 6.96Q12.50 7.05 12.71 7.18L12.71 7.18L12.71 7.18Q12.93 7.30 13.11 7.54L13.11 7.54L13.11 7.54Q13.28 7.77 13.37 8.04L13.37 8.04L13.37 8.04Q13.47 8.30 13.53 8.73L13.53 8.73L13.53 8.73Q13.59 9.15 13.61 9.60L13.61 9.60L13.61 9.60Q13.62 10.04 13.62 10.71L13.62 10.71L13.62 10.71Q13.62 11.59 13.60 12.09L13.60 12.09L13.60 12.09Q13.58 12.59 13.47 13.10L13.47 13.10L13.47 13.10Q13.36 13.61 13.16 13.85L13.16 13.85L13.16 13.85Q12.97 14.09 12.60 14.29L12.60 14.29L12.60 14.29Q12.24 14.50 11.73 14.56L11.73 14.56L11.73 14.56Q11.22 14.62 10.46 14.62ZM21.48 4.03L21.48 14.52L20.25 14.52L20.12 13.58L20.12 13.58Q19.70 14.62 17.94 14.62L17.94 14.62L17.94 14.62Q17.47 14.62 17.09 14.56L17.09 14.56L17.09 14.56Q16.72 14.50 16.45 14.35L16.45 14.35L16.45 14.35Q16.18 14.20 15.99 14.04L15.99 14.04L15.99 14.04Q15.80 13.88 15.67 13.57L15.67 13.57L15.67 13.57Q15.54 13.27 15.47 13.02L15.47 13.02L15.47 13.02Q15.40 12.77 15.37 12.33L15.37 12.33L15.37 12.33Q15.33 11.88 15.33 11.55L15.33 11.55L15.33 11.55Q15.32 11.22 15.32 10.65L15.32 10.65L15.32 10.65Q15.32 10.10 15.34 9.69L15.34 9.69L15.34 9.69Q15.35 9.29 15.40 8.89L15.40 8.89L15.40 8.89Q15.46 8.50 15.54 8.23L15.54 8.23L15.54 8.23Q15.63 7.96 15.77 7.70L15.77 7.70L15.77 7.70Q15.91 7.45 16.12 7.30L16.12 7.30L16.12 7.30Q16.32 7.14 16.60 7.02L16.60 7.02L16.60 7.02Q16.88 6.90 17.24 6.86L17.24 6.86L17.24 6.86Q17.60 6.81 18.06 6.81L18.06 6.81L18.06 6.81Q18.94 6.81 19.43 7.04L19.43 7.04L19.43 7.04Q19.92 7.28 20.13 7.79L20.13 7.79L20.13 4.14L21.48 4.03ZM20.13 12.78L20.13 12.78L20.13 8.79L20.13 8.79Q20.13 8.20 19.76 7.97L19.76 7.97L19.76 7.97Q19.39 7.75 18.38 7.75L18.38 7.75L18.38 7.75Q17.58 7.75 17.20 7.87L17.20 7.87L17.20 7.87Q16.88 7.96 16.78 8.43L16.78 8.43L16.78 8.43Q16.67 8.90 16.67 9.69L16.67 9.69L16.67 9.69Q16.67 10.85 16.71 12.93L16.71 12.93L16.71 12.93Q16.74 13.38 17.07 13.53L17.07 13.53L17.07 13.53Q17.40 13.69 18.38 13.69L18.38 13.69L18.38 13.69Q19.33 13.69 19.71 13.49L19.71 13.49L19.71 13.49Q20.09 13.30 20.13 12.78ZM29.10 9.56L29.10 14.52L28.03 14.52L27.82 13.45L27.82 13.45Q27.61 14.15 27.07 14.39L27.07 14.39L27.07 14.39Q26.54 14.62 25.50 14.62L25.50 14.62L25.50 14.62Q24.82 14.62 24.38 14.49L24.38 14.49L24.38 14.49Q23.95 14.36 23.69 14.04L23.69 14.04L23.69 14.04Q23.43 13.73 23.33 13.27L23.33 13.27L23.33 13.27Q23.23 12.82 23.23 12.10L23.23 12.10L23.23 12.10Q23.23 11.78 23.34 11.53L23.34 11.53L23.34 11.53Q23.45 11.27 23.65 11.09L23.65 11.09L23.65 11.09Q23.84 10.92 24.17 10.79L24.17 10.79L24.17 10.79Q24.49 10.66 24.84 10.58L24.84 10.58L24.84 10.58Q25.19 10.51 25.69 10.46L25.69 10.46L25.69 10.46Q26.18 10.42 26.65 10.40L26.65 10.40L26.65 10.40Q27.13 10.39 27.75 10.39L27.75 10.39L27.75 8.36L27.75 8.36Q27.75 8.01 27.43 7.88L27.43 7.88L27.43 7.88Q27.10 7.75 26.26 7.75L26.26 7.75L26.26 7.75Q25.67 7.75 25.38 7.77L25.38 7.77L25.38 7.77Q25.08 7.80 24.93 7.93L24.93 7.93L24.93 7.93Q24.77 8.07 24.75 8.20L24.75 8.20L24.75 8.20Q24.73 8.33 24.72 8.68L24.72 8.68L24.72 8.68Q24.71 8.81 24.71 8.89L24.71 8.89L23.67 8.85L23.67 8.85Q23.65 8.74 23.65 8.52L23.65 8.52L23.65 8.52Q23.65 8.07 23.79 7.75L23.79 7.75L23.79 7.75Q23.92 7.43 24.13 7.25L24.13 7.25L24.13 7.25Q24.34 7.07 24.71 6.97L24.71 6.97L24.71 6.97Q25.08 6.86 25.44 6.84L25.44 6.84L25.44 6.84Q25.81 6.81 26.35 6.81L26.35 6.81L26.35 6.81Q27.17 6.81 27.68 6.94L27.68 6.94L27.68 6.94Q28.19 7.06 28.52 7.39L28.52 7.39L28.52 7.39Q28.85 7.72 28.97 8.23L28.97 8.23L28.97 8.23Q29.10 8.74 29.10 9.56L29.10 9.56ZM27.75 12.37L27.75 12.37L27.75 11.20L27.75 11.20Q26.41 11.20 25.68 11.31L25.68 11.31L25.68 11.31Q24.96 11.41 24.72 11.59L24.72 11.59L24.72 11.59Q24.47 11.77 24.47 12.10L24.47 12.10L24.47 12.10Q24.47 12.11 24.47 12.14L24.47 12.14L24.47 12.14Q24.47 13.18 24.64 13.43L24.64 13.43L24.64 13.43Q24.81 13.69 25.69 13.69L25.69 13.69L25.69 13.69Q26.43 13.69 26.90 13.51L26.90 13.51L26.90 13.51Q27.36 13.33 27.55 13.05L27.55 13.05L27.55 13.05Q27.73 12.78 27.75 12.37ZM35.45 7.02L36.83 7.02L34.46 14.16L34.46 14.16Q34.37 14.42 34.27 14.78L34.27 14.78L34.27 14.78Q34.17 15.15 34.11 15.37L34.11 15.37L34.11 15.37Q34.04 15.60 33.94 15.87L33.94 15.87L33.94 15.87Q33.84 16.14 33.73 16.30L33.73 16.30L33.73 16.30Q33.61 16.46 33.44 16.61L33.44 16.61L33.44 16.61Q33.27 16.75 33.03 16.82L33.03 16.82L33.03 16.82Q32.79 16.88 32.48 16.88L32.48 16.88L32.48 16.88Q31.66 16.88 31.00 16.73L31.00 16.73L31.21 15.69L31.21 15.69Q31.34 15.70 31.55 15.74L31.55 15.74L31.55 15.74Q31.77 15.78 31.93 15.80L31.93 15.80L31.93 15.80Q32.09 15.82 32.23 15.82L32.23 15.82L32.23 15.82Q32.67 15.82 32.89 15.52L32.89 15.52L32.89 15.52Q33.12 15.22 33.13 14.40L33.13 14.40L30.32 7.02L31.68 7.02L33.06 10.83L33.06 10.83Q33.43 11.87 33.76 12.79L33.76 12.79L33.76 12.79Q33.98 11.96 34.42 10.51L34.42 10.51L35.45 7.02Z"></path></g><!----><g data-v-423bf9ae="" id="230171c9-40a9-493f-9d05-6e1fe3f144b8" transform="matrix(1.9148936170212767,0,0,1.9148936170212767,-18.276595744680854,-15.319148936170215)" stroke="none" fill="#000000"><path d="M10 26v25a4 4 0 0 0 4 4h36a4 4 0 0 0 4-4V26zm16 14a1 1 0 0 1-1 1H15a1 1 0 0 1-1-1V30a1 1 0 0 1 1-1h10a1 1 0 0 1 1 1zm-10-1h8v-8h-8zM43 15h-2v-3a4 4 0 0 1 8 0v1h-2v-1a2 2 0 0 0-4 0zM23 15h-2v-3a4 4 0 0 1 8 0v1h-2v-1a2 2 0 0 0-4 0zM54 19v5H10v-5a4 4 0 0 1 4-4h7v4h-3a1 1 0 0 0 0 2h8a1 1 0 0 0 0-2h-3v-4h18v4h-3a1 1 0 0 0 0 2h8a1 1 0 0 0 0-2h-3v-4h7a4 4 0 0 1 4 4z"></path></g><!----></svg>